# xmcd
#
# Track frame offsets:
#	150
#	20613
#	41313
#	63613
#	86988
#	106888
#	122188
#	144713
#	163563
#	182563
#	196988
#	220075
#	238625
#	254388
#	275588
#
# Disc length: 3949 seconds
#
# Revision: 1
# Processed by: cddbd v1.5.2PL0 Copyright (c) Steve Scherf et al.
# Submitted via: EZCDAudioConverter 8.0.2.1
#
DISCID=db0f6b0f
DTITLE=张学友 - 祝福
DYEAR=1993
DGENRE=World
TTITLE0=祝福
TTITLE1=对你的爱越深就越来越心痛
TTITLE2=好久
TTITLE3=回头太难
TTITLE4=昨日情
TTITLE5=穿过你的黑发的我的手
TTITLE6=谁想轻轻偷走我的吻
TTITLE7=是悲是喜
TTITLE8=爱慕
TTITLE9=明日约定
TTITLE10=情到深处
TTITLE11=苦恋
TTITLE12=爱情
TTITLE13=情已逝
TTITLE14=最后一封信
EXTD=
EXTT0=
EXTT1=
EXTT2=
EXTT3=
EXTT4=
EXTT5=
EXTT6=
EXTT7=
EXTT8=
EXTT9=
EXTT10=
EXTT11=
EXTT12=
EXTT13=
EXTT14=
PLAYORDER=
